<?xml version="1.0" encoding="UTF-8" standalone="no"?><svg xmlns="http://www.w3.org/2000/svg" xmlns:xlink="http://www.w3.org/1999/xlink" contentScriptType="application/ecmascript" contentStyleType="text/css" height="273px" preserveAspectRatio="none" style="width:527px;height:273px;" version="1.1" viewBox="0 0 527 273" width="527px" zoomAndPan="magnify"><defs><filter height="300%" id="f1rhzaxbcn080l" width="300%" x="-1" y="-1"><feGaussianBlur result="blurOut" stdDeviation="2.0"/><feColorMatrix in="blurOut" result="blurOut2" type="matrix" values="0 0 0 0 0 0 0 0 0 0 0 0 0 0 0 0 0 0 .4 0"/><feOffset dx="4.0" dy="4.0" in="blurOut2" result="blurOut3"/><feBlend in="SourceGraphic" in2="blurOut3" mode="normal"/></filter></defs><g><text fill="#000000" font-family="sans-serif" font-size="18" lengthAdjust="spacingAndGlyphs" textLength="387" x="77.5" y="16.708">Thunglish Overview - Deployment Diagram</text><!--MD5=[86f7e5877ca9d460bfed9584a3285baf]
cluster EAM--><rect fill="#FFFFFF" filter="url(#f1rhzaxbcn080l)" height="226" style="stroke: #000000; stroke-width: 1.5;" width="502" x="14" y="36.9531"/><path d="M57,37.9531 L57,46.25 L47,56.25 L14,56.25 " fill="none" style="stroke: #000000; stroke-width: 1.5;"/><text fill="#000000" font-family="sans-serif" font-size="14" font-weight="bold" lengthAdjust="spacingAndGlyphs" textLength="33" x="17" y="50.9482">EAM</text><!--MD5=[f84a3ee2e326cdb348bc767a5a90622b]
cluster layer2:Thinglish--><rect fill="#FFFFFF" filter="url(#f1rhzaxbcn080l)" height="191" style="stroke: #000000; stroke-width: 1.5;" width="486" x="22" y="63.9531"/><path d="M158,64.9531 L158,73.25 L148,83.25 L22,83.25 " fill="none" style="stroke: #000000; stroke-width: 1.5;"/><text fill="#000000" font-family="sans-serif" font-size="14" font-weight="bold" lengthAdjust="spacingAndGlyphs" textLength="126" x="25" y="77.9482">layer2:Thinglish</text><!--MD5=[43bec02df94fff5dc38d9e53a0cd883f]
class Thinglish--><rect fill="#FFFFFF" filter="url(#f1rhzaxbcn080l)" height="48" id="Thinglish" style="stroke: #4169E1; stroke-width: 1.5;" width="87" x="188.5" y="90.9531"/><ellipse cx="203.5" cy="106.9531" fill="#ADD1B2" rx="11" ry="11" style="stroke: #4169E1; stroke-width: 1.0;"/><path d="M206.4688,112.5938 Q205.8906,112.8906 205.25,113.0313 Q204.6094,113.1875 203.9063,113.1875 Q201.4063,113.1875 200.0781,111.5469 Q198.7656,109.8906 198.7656,106.7656 Q198.7656,103.6406 200.0781,101.9844 Q201.4063,100.3281 203.9063,100.3281 Q204.6094,100.3281 205.25,100.4844 Q205.9063,100.6406 206.4688,100.9375 L206.4688,103.6563 Q205.8438,103.0781 205.25,102.8125 Q204.6563,102.5313 204.0313,102.5313 Q202.6875,102.5313 202,103.6094 Q201.3125,104.6719 201.3125,106.7656 Q201.3125,108.8594 202,109.9375 Q202.6875,111 204.0313,111 Q204.6563,111 205.25,110.7344 Q205.8438,110.4531 206.4688,109.875 L206.4688,112.5938 Z "/><text fill="#000000" font-family="sans-serif" font-size="12" lengthAdjust="spacingAndGlyphs" textLength="55" x="217.5" y="111.1074">Thinglish</text><line style="stroke: #4169E1; stroke-width: 1.5;" x1="189.5" x2="274.5" y1="122.9531" y2="122.9531"/><line style="stroke: #4169E1; stroke-width: 1.5;" x1="189.5" x2="274.5" y1="130.9531" y2="130.9531"/><!--MD5=[12927abdbfa7801991caff1221b38578]
class TypedFunction--><rect fill="#FFFFFF" filter="url(#f1rhzaxbcn080l)" height="48" id="TypedFunction" style="stroke: #4169E1; stroke-width: 1.5;" width="123" x="30.5" y="90.9531"/><ellipse cx="45.5" cy="106.9531" fill="#ADD1B2" rx="11" ry="11" style="stroke: #4169E1; stroke-width: 1.0;"/><path d="M48.4688,112.5938 Q47.8906,112.8906 47.25,113.0313 Q46.6094,113.1875 45.9063,113.1875 Q43.4063,113.1875 42.0781,111.5469 Q40.7656,109.8906 40.7656,106.7656 Q40.7656,103.6406 42.0781,101.9844 Q43.4063,100.3281 45.9063,100.3281 Q46.6094,100.3281 47.25,100.4844 Q47.9063,100.6406 48.4688,100.9375 L48.4688,103.6563 Q47.8438,103.0781 47.25,102.8125 Q46.6563,102.5313 46.0313,102.5313 Q44.6875,102.5313 44,103.6094 Q43.3125,104.6719 43.3125,106.7656 Q43.3125,108.8594 44,109.9375 Q44.6875,111 46.0313,111 Q46.6563,111 47.25,110.7344 Q47.8438,110.4531 48.4688,109.875 L48.4688,112.5938 Z "/><text fill="#000000" font-family="sans-serif" font-size="12" lengthAdjust="spacingAndGlyphs" textLength="91" x="59.5" y="111.1074">TypedFunction</text><line style="stroke: #4169E1; stroke-width: 1.5;" x1="31.5" x2="152.5" y1="122.9531" y2="122.9531"/><line style="stroke: #4169E1; stroke-width: 1.5;" x1="31.5" x2="152.5" y1="130.9531" y2="130.9531"/><!--MD5=[713bb781b1b579324fb36ad0db6385cf]
class Interface--><rect fill="#FFFFFF" filter="url(#f1rhzaxbcn080l)" height="48" id="Interface" style="stroke: #4169E1; stroke-width: 1.5;" width="88" x="311" y="90.9531"/><ellipse cx="326" cy="106.9531" fill="#ADD1B2" rx="11" ry="11" style="stroke: #4169E1; stroke-width: 1.0;"/><path d="M328.9688,112.5938 Q328.3906,112.8906 327.75,113.0313 Q327.1094,113.1875 326.4063,113.1875 Q323.9063,113.1875 322.5781,111.5469 Q321.2656,109.8906 321.2656,106.7656 Q321.2656,103.6406 322.5781,101.9844 Q323.9063,100.3281 326.4063,100.3281 Q327.1094,100.3281 327.75,100.4844 Q328.4063,100.6406 328.9688,100.9375 L328.9688,103.6563 Q328.3438,103.0781 327.75,102.8125 Q327.1563,102.5313 326.5313,102.5313 Q325.1875,102.5313 324.5,103.6094 Q323.8125,104.6719 323.8125,106.7656 Q323.8125,108.8594 324.5,109.9375 Q325.1875,111 326.5313,111 Q327.1563,111 327.75,110.7344 Q328.3438,110.4531 328.9688,109.875 L328.9688,112.5938 Z "/><text fill="#000000" font-family="sans-serif" font-size="12" lengthAdjust="spacingAndGlyphs" textLength="56" x="340" y="111.1074">Interface</text><line style="stroke: #4169E1; stroke-width: 1.5;" x1="312" x2="398" y1="122.9531" y2="122.9531"/><line style="stroke: #4169E1; stroke-width: 1.5;" x1="312" x2="398" y1="130.9531" y2="130.9531"/><!--MD5=[27e07e36948c47b4efc69b1ef7e121f8]
class TestInterface--><rect fill="#FFFFFF" filter="url(#f1rhzaxbcn080l)" height="48" id="TestInterface" style="stroke: #4169E1; stroke-width: 1.5;" width="115" x="288.5" y="198.9531"/><ellipse cx="303.5" cy="214.9531" fill="#ADD1B2" rx="11" ry="11" style="stroke: #4169E1; stroke-width: 1.0;"/><path d="M306.4688,220.5938 Q305.8906,220.8906 305.25,221.0313 Q304.6094,221.1875 303.9063,221.1875 Q301.4063,221.1875 300.0781,219.5469 Q298.7656,217.8906 298.7656,214.7656 Q298.7656,211.6406 300.0781,209.9844 Q301.4063,208.3281 303.9063,208.3281 Q304.6094,208.3281 305.25,208.4844 Q305.9063,208.6406 306.4688,208.9375 L306.4688,211.6563 Q305.8438,211.0781 305.25,210.8125 Q304.6563,210.5313 304.0313,210.5313 Q302.6875,210.5313 302,211.6094 Q301.3125,212.6719 301.3125,214.7656 Q301.3125,216.8594 302,217.9375 Q302.6875,219 304.0313,219 Q304.6563,219 305.25,218.7344 Q305.8438,218.4531 306.4688,217.875 L306.4688,220.5938 Z "/><text fill="#000000" font-family="sans-serif" font-size="12" lengthAdjust="spacingAndGlyphs" textLength="83" x="317.5" y="219.1074">TestInterface</text><line style="stroke: #4169E1; stroke-width: 1.5;" x1="289.5" x2="402.5" y1="230.9531" y2="230.9531"/><line style="stroke: #4169E1; stroke-width: 1.5;" x1="289.5" x2="402.5" y1="238.9531" y2="238.9531"/><!--MD5=[df38be88ccee13e832d6fafd6288a4ca]
class Test--><rect fill="#FFFFFF" filter="url(#f1rhzaxbcn080l)" height="48" id="Test" style="stroke: #4169E1; stroke-width: 1.5;" width="59" x="438.5" y="198.9531"/><ellipse cx="453.5" cy="214.9531" fill="#ADD1B2" rx="11" ry="11" style="stroke: #4169E1; stroke-width: 1.0;"/><path d="M456.4688,220.5938 Q455.8906,220.8906 455.25,221.0313 Q454.6094,221.1875 453.9063,221.1875 Q451.4063,221.1875 450.0781,219.5469 Q448.7656,217.8906 448.7656,214.7656 Q448.7656,211.6406 450.0781,209.9844 Q451.4063,208.3281 453.9063,208.3281 Q454.6094,208.3281 455.25,208.4844 Q455.9063,208.6406 456.4688,208.9375 L456.4688,211.6563 Q455.8438,211.0781 455.25,210.8125 Q454.6563,210.5313 454.0313,210.5313 Q452.6875,210.5313 452,211.6094 Q451.3125,212.6719 451.3125,214.7656 Q451.3125,216.8594 452,217.9375 Q452.6875,219 454.0313,219 Q454.6563,219 455.25,218.7344 Q455.8438,218.4531 456.4688,217.875 L456.4688,220.5938 Z "/><text fill="#000000" font-family="sans-serif" font-size="12" lengthAdjust="spacingAndGlyphs" textLength="27" x="467.5" y="219.1074">Test</text><line style="stroke: #4169E1; stroke-width: 1.5;" x1="439.5" x2="496.5" y1="230.9531" y2="230.9531"/><line style="stroke: #4169E1; stroke-width: 1.5;" x1="439.5" x2="496.5" y1="238.9531" y2="238.9531"/><!--MD5=[1053da7555f32ea3c982e01119b403ff]
class Thing--><rect fill="#FFFFFF" filter="url(#f1rhzaxbcn080l)" height="48" id="Thing" style="stroke: #4169E1; stroke-width: 1.5;" width="66" x="434" y="90.9531"/><ellipse cx="449" cy="106.9531" fill="#ADD1B2" rx="11" ry="11" style="stroke: #4169E1; stroke-width: 1.0;"/><path d="M451.9688,112.5938 Q451.3906,112.8906 450.75,113.0313 Q450.1094,113.1875 449.4063,113.1875 Q446.9063,113.1875 445.5781,111.5469 Q444.2656,109.8906 444.2656,106.7656 Q444.2656,103.6406 445.5781,101.9844 Q446.9063,100.3281 449.4063,100.3281 Q450.1094,100.3281 450.75,100.4844 Q451.4063,100.6406 451.9688,100.9375 L451.9688,103.6563 Q451.3438,103.0781 450.75,102.8125 Q450.1563,102.5313 449.5313,102.5313 Q448.1875,102.5313 447.5,103.6094 Q446.8125,104.6719 446.8125,106.7656 Q446.8125,108.8594 447.5,109.9375 Q448.1875,111 449.5313,111 Q450.1563,111 450.75,110.7344 Q451.3438,110.4531 451.9688,109.875 L451.9688,112.5938 Z "/><text fill="#000000" font-family="sans-serif" font-size="12" lengthAdjust="spacingAndGlyphs" textLength="34" x="463" y="111.1074">Thing</text><line style="stroke: #4169E1; stroke-width: 1.5;" x1="435" x2="499" y1="122.9531" y2="122.9531"/><line style="stroke: #4169E1; stroke-width: 1.5;" x1="435" x2="499" y1="130.9531" y2="130.9531"/><!--MD5=[e15de074aab4b64909ccee2ce75cd2b6]
reverse link Interface to TestInterface--><path d="M351.3091,159.2442 C350.1819,172.7702 348.9847,187.1366 348.013,198.7967 " fill="none" id="Interface&lt;-TestInterface" style="stroke: #A80036; stroke-width: 1.0;"/><polygon fill="none" points="344.3434,158.54,352.9802,139.1904,358.295,159.7027,344.3434,158.54" style="stroke: #A80036; stroke-width: 1.0;"/><!--MD5=[bde8b5538b25872145b366802614f117]
reverse link Thing to Test--><path d="M467.4101,159.2442 C467.5353,172.7702 467.6684,187.1366 467.7763,198.7967 " fill="none" id="Thing&lt;-Test" style="stroke: #A80036; stroke-width: 1.0;"/><polygon fill="none" points="460.41,159.2544,467.2244,139.1904,474.4094,159.1247,460.41,159.2544" style="stroke: #A80036; stroke-width: 1.0;"/><!--MD5=[21ff2f829df23dff74c9773563e7c4fe]
@startuml

title Thunglish Overview - Deployment Diagram 

skinparam rectangle<<behavior>> {
	roundCorner 25
}

skinparam class {
    BackgroundColor White
    
    BorderColor RoyalBlue
    BorderColor<<primary>> #FF2C24
    BorderColor<<secondary>> #FF9924
}

hide stereotype

frame EAM {

        frame layer2:Thinglish {
            class Thinglish
            class TypedFunction
            class Interface
            class TestInterface
            TestInterface -up-|> Interface
            class Test
            class Thing
            Test -up-|> Thing
        }
}
@enduml

PlantUML version 1.2020.10(Sun May 17 15:05:57 IST 2020)
(GPL source distribution)
Java Runtime: OpenJDK Runtime Environment
JVM: OpenJDK 64-Bit Server VM
Java Version: 11.0.8+10-post-Ubuntu-0ubuntu118.04.1
Operating System: Linux
Default Encoding: UTF-8
Language: en
Country: IN
--></g></svg>