<?xml version="1.0" encoding="utf-8"?>
<!-- Generator: Adobe Illustrator 22.1.0, SVG Export Plug-In . SVG Version: 6.00 Build 0)  -->
<svg version="1.1" id="Ebene_2" xmlns="http://www.w3.org/2000/svg"  x="0px" y="0px"
	 viewBox="0 0 500 500" style="enable-background:new 0 0 500 500;" xml:space="preserve">
<style type="text/css">
	.st0{fill:#1A9DD9;}
	.st1{fill:#6BC2BF;}
</style>
<path class="st0" d="M256,335h-12c-4.9,0-9-4-9-9v-87c0-4.9,4.1-9,9-9h12c5,0,9,4.1,9,9v87C265,331,261,335,256,335z">
	<animate attributeName="opacity"
             values="0;0;0;1;1;1" dur="4s"
             repeatCount="indefinite"/>
	
  </path>
<path class="st0" d="M206,335h-12c-4.9,0-9-4-9-9v-57c0-5,4.1-9,9-9h12c4.9,0,9,4,9,9v57C215,331,210.9,335,206,335z">
<animate attributeName="opacity"
             values="0;0;1;1;1;1" dur="4s"
             repeatCount="indefinite"/>
	
  </path>

<path class="st0" d="M156,335h-12c-4.9,0-9-4-9-9v-27c0-5,4.1-9,9-9h12c4.9,0,9,4,9,9v27C165,331,160.9,335,156,335z">
<animate attributeName="opacity"
             values="0;1;1;1;1;1" dur="4s"
             repeatCount="indefinite"/>
	
  </path>

<path class="st0" d="M306,335h-12c-5,0-9-4-9-9V209c0-4.9,4-9,9-9h12c5,0,9,4.1,9,9v117C315,331,311,335,306,335z">
<animate attributeName="opacity"
             values="0;0;0;0;1;1" dur="4s"
             repeatCount="indefinite"/>
	
  </path>

<path class="st0" d="M356,335h-12c-5,0-9-4-9-9V179c0-4.9,4-9,9-9h12c5,0,9,4.1,9,9v147C365,331,361,335,356,335z">
<animate attributeName="opacity"
             values="0;0;0;0;0;1" dur="4s"
             repeatCount="indefinite"/>
	
  </path>

<path class="st1" d="M30,250c0-121.5,98.5-220,220-220V0C111.9,0,0,111.9,0,250s111.9,250,250,250v-30C128.5,470,30,371.5,30,250z"
	>
	<animateTransform 
      repeatCount="indefinite"
      attributeName="transform" type="rotate"
      from="0 250 250" to="360 250 250" begin="0" dur="4s" />
  </path>
<path class="st0" d="M470,250c0-121.5-98.5-220-220-220V0c138.1,0,250,111.9,250,250S388.1,500,250,500v-30
	C371.5,470,470,371.5,470,250z">
	<animateTransform 
      repeatCount="indefinite"
      attributeName="transform" type="rotate"
      from="0 250 250" to="360 250 250" begin="0" dur="4s" />
  </path>
</svg>
