<?xml version="1.0" encoding="UTF-8" standalone="no"?><svg xmlns="http://www.w3.org/2000/svg" xmlns:xlink="http://www.w3.org/1999/xlink" contentScriptType="application/ecmascript" contentStyleType="text/css" height="658px" preserveAspectRatio="none" style="width:1420px;height:658px;" version="1.1" viewBox="0 0 1420 658" width="1420px" zoomAndPan="magnify"><defs><filter height="300%" id="fif1arb1ucoz3" width="300%" x="-1" y="-1"><feGaussianBlur result="blurOut" stdDeviation="2.0"/><feColorMatrix in="blurOut" result="blurOut2" type="matrix" values="0 0 0 0 0 0 0 0 0 0 0 0 0 0 0 0 0 0 .4 0"/><feOffset dx="4.0" dy="4.0" in="blurOut2" result="blurOut3"/><feBlend in="SourceGraphic" in2="blurOut3" mode="normal"/></filter></defs><g><text fill="#000000" font-family="sans-serif" font-size="18" lengthAdjust="spacingAndGlyphs" textLength="354" x="540.5" y="16.708">ONCE Overview - Deployment Diagram</text><!--MD5=[86f7e5877ca9d460bfed9584a3285baf]
cluster EAM--><rect fill="#FFFFFF" filter="url(#fif1arb1ucoz3)" height="611" style="stroke: #000000; stroke-width: 1.5;" width="1395" x="14" y="36.9531"/><path d="M57,37.9531 L57,46.25 L47,56.25 L14,56.25 " fill="none" style="stroke: #000000; stroke-width: 1.5;"/><text fill="#000000" font-family="sans-serif" font-size="14" font-weight="bold" lengthAdjust="spacingAndGlyphs" textLength="33" x="17" y="50.9482">EAM</text><!--MD5=[e6c1b0afa6020652c0a3ef8908534509]
cluster layer2:Once--><rect fill="#FFFFFF" filter="url(#fif1arb1ucoz3)" height="576" style="stroke: #000000; stroke-width: 1.5;" width="1379" x="22" y="63.9531"/><path d="M128,64.9531 L128,73.25 L118,83.25 L22,83.25 " fill="none" style="stroke: #000000; stroke-width: 1.5;"/><text fill="#000000" font-family="sans-serif" font-size="14" font-weight="bold" lengthAdjust="spacingAndGlyphs" textLength="96" x="25" y="77.9482">layer2:Once</text><!--MD5=[e5a45d16d6d26490a7d555eb1234dd37]
class SavetySwitch--><rect fill="#FFFFFF" filter="url(#fif1arb1ucoz3)" height="48" id="SavetySwitch" style="stroke: #4169E1; stroke-width: 1.5;" width="113" x="995.5" y="90.9531"/><ellipse cx="1010.5" cy="106.9531" fill="#ADD1B2" rx="11" ry="11" style="stroke: #4169E1; stroke-width: 1.0;"/><path d="M1013.4688,112.5938 Q1012.8906,112.8906 1012.25,113.0313 Q1011.6094,113.1875 1010.9063,113.1875 Q1008.4063,113.1875 1007.0781,111.5469 Q1005.7656,109.8906 1005.7656,106.7656 Q1005.7656,103.6406 1007.0781,101.9844 Q1008.4063,100.3281 1010.9063,100.3281 Q1011.6094,100.3281 1012.25,100.4844 Q1012.9063,100.6406 1013.4688,100.9375 L1013.4688,103.6563 Q1012.8438,103.0781 1012.25,102.8125 Q1011.6563,102.5313 1011.0313,102.5313 Q1009.6875,102.5313 1009,103.6094 Q1008.3125,104.6719 1008.3125,106.7656 Q1008.3125,108.8594 1009,109.9375 Q1009.6875,111 1011.0313,111 Q1011.6563,111 1012.25,110.7344 Q1012.8438,110.4531 1013.4688,109.875 L1013.4688,112.5938 Z "/><text fill="#000000" font-family="sans-serif" font-size="12" lengthAdjust="spacingAndGlyphs" textLength="81" x="1024.5" y="111.1074">SavetySwitch</text><line style="stroke: #4169E1; stroke-width: 1.5;" x1="996.5" x2="1107.5" y1="122.9531" y2="122.9531"/><line style="stroke: #4169E1; stroke-width: 1.5;" x1="996.5" x2="1107.5" y1="130.9531" y2="130.9531"/><!--MD5=[8d729038c48ea67d1bfca0b0b8d717df]
class Loader--><rect fill="#FFFFFF" filter="url(#fif1arb1ucoz3)" height="48" id="Loader" style="stroke: #4169E1; stroke-width: 1.5;" width="75" x="266.5" y="90.9531"/><ellipse cx="281.5" cy="106.9531" fill="#ADD1B2" rx="11" ry="11" style="stroke: #4169E1; stroke-width: 1.0;"/><path d="M284.4688,112.5938 Q283.8906,112.8906 283.25,113.0313 Q282.6094,113.1875 281.9063,113.1875 Q279.4063,113.1875 278.0781,111.5469 Q276.7656,109.8906 276.7656,106.7656 Q276.7656,103.6406 278.0781,101.9844 Q279.4063,100.3281 281.9063,100.3281 Q282.6094,100.3281 283.25,100.4844 Q283.9063,100.6406 284.4688,100.9375 L284.4688,103.6563 Q283.8438,103.0781 283.25,102.8125 Q282.6563,102.5313 282.0313,102.5313 Q280.6875,102.5313 280,103.6094 Q279.3125,104.6719 279.3125,106.7656 Q279.3125,108.8594 280,109.9375 Q280.6875,111 282.0313,111 Q282.6563,111 283.25,110.7344 Q283.8438,110.4531 284.4688,109.875 L284.4688,112.5938 Z "/><text fill="#000000" font-family="sans-serif" font-size="12" lengthAdjust="spacingAndGlyphs" textLength="43" x="295.5" y="111.1074">Loader</text><line style="stroke: #4169E1; stroke-width: 1.5;" x1="267.5" x2="340.5" y1="122.9531" y2="122.9531"/><line style="stroke: #4169E1; stroke-width: 1.5;" x1="267.5" x2="340.5" y1="130.9531" y2="130.9531"/><!--MD5=[102bdcd9864e7ab342c0fdba33242ea0]
class DocumentScriptLoader--><rect fill="#FFFFFF" filter="url(#fif1arb1ucoz3)" height="48" id="DocumentScriptLoader" style="stroke: #4169E1; stroke-width: 1.5;" width="175" x="30.5" y="198.9531"/><ellipse cx="45.5" cy="214.9531" fill="#ADD1B2" rx="11" ry="11" style="stroke: #4169E1; stroke-width: 1.0;"/><path d="M48.4688,220.5938 Q47.8906,220.8906 47.25,221.0313 Q46.6094,221.1875 45.9063,221.1875 Q43.4063,221.1875 42.0781,219.5469 Q40.7656,217.8906 40.7656,214.7656 Q40.7656,211.6406 42.0781,209.9844 Q43.4063,208.3281 45.9063,208.3281 Q46.6094,208.3281 47.25,208.4844 Q47.9063,208.6406 48.4688,208.9375 L48.4688,211.6563 Q47.8438,211.0781 47.25,210.8125 Q46.6563,210.5313 46.0313,210.5313 Q44.6875,210.5313 44,211.6094 Q43.3125,212.6719 43.3125,214.7656 Q43.3125,216.8594 44,217.9375 Q44.6875,219 46.0313,219 Q46.6563,219 47.25,218.7344 Q47.8438,218.4531 48.4688,217.875 L48.4688,220.5938 Z "/><text fill="#000000" font-family="sans-serif" font-size="12" lengthAdjust="spacingAndGlyphs" textLength="143" x="59.5" y="219.1074">DocumentScriptLoader</text><line style="stroke: #4169E1; stroke-width: 1.5;" x1="31.5" x2="204.5" y1="230.9531" y2="230.9531"/><line style="stroke: #4169E1; stroke-width: 1.5;" x1="31.5" x2="204.5" y1="238.9531" y2="238.9531"/><!--MD5=[236e8d89d05a497417ce9ed39e859f96]
class WeBeanLoader--><rect fill="#FFFFFF" filter="url(#fif1arb1ucoz3)" height="48" id="WeBeanLoader" style="stroke: #4169E1; stroke-width: 1.5;" width="126" x="241" y="198.9531"/><ellipse cx="256" cy="214.9531" fill="#ADD1B2" rx="11" ry="11" style="stroke: #4169E1; stroke-width: 1.0;"/><path d="M258.9688,220.5938 Q258.3906,220.8906 257.75,221.0313 Q257.1094,221.1875 256.4063,221.1875 Q253.9063,221.1875 252.5781,219.5469 Q251.2656,217.8906 251.2656,214.7656 Q251.2656,211.6406 252.5781,209.9844 Q253.9063,208.3281 256.4063,208.3281 Q257.1094,208.3281 257.75,208.4844 Q258.4063,208.6406 258.9688,208.9375 L258.9688,211.6563 Q258.3438,211.0781 257.75,210.8125 Q257.1563,210.5313 256.5313,210.5313 Q255.1875,210.5313 254.5,211.6094 Q253.8125,212.6719 253.8125,214.7656 Q253.8125,216.8594 254.5,217.9375 Q255.1875,219 256.5313,219 Q257.1563,219 257.75,218.7344 Q258.3438,218.4531 258.9688,217.875 L258.9688,220.5938 Z "/><text fill="#000000" font-family="sans-serif" font-size="12" lengthAdjust="spacingAndGlyphs" textLength="94" x="270" y="219.1074">WeBeanLoader</text><line style="stroke: #4169E1; stroke-width: 1.5;" x1="242" x2="366" y1="230.9531" y2="230.9531"/><line style="stroke: #4169E1; stroke-width: 1.5;" x1="242" x2="366" y1="238.9531" y2="238.9531"/><!--MD5=[f7391357f99e6e65b352c46a7b52d5e2]
class EAMDucpLoader--><rect fill="#FFFFFF" filter="url(#fif1arb1ucoz3)" height="48" id="EAMDucpLoader" style="stroke: #4169E1; stroke-width: 1.5;" width="133" x="402.5" y="198.9531"/><ellipse cx="417.5" cy="214.9531" fill="#ADD1B2" rx="11" ry="11" style="stroke: #4169E1; stroke-width: 1.0;"/><path d="M420.4688,220.5938 Q419.8906,220.8906 419.25,221.0313 Q418.6094,221.1875 417.9063,221.1875 Q415.4063,221.1875 414.0781,219.5469 Q412.7656,217.8906 412.7656,214.7656 Q412.7656,211.6406 414.0781,209.9844 Q415.4063,208.3281 417.9063,208.3281 Q418.6094,208.3281 419.25,208.4844 Q419.9063,208.6406 420.4688,208.9375 L420.4688,211.6563 Q419.8438,211.0781 419.25,210.8125 Q418.6563,210.5313 418.0313,210.5313 Q416.6875,210.5313 416,211.6094 Q415.3125,212.6719 415.3125,214.7656 Q415.3125,216.8594 416,217.9375 Q416.6875,219 418.0313,219 Q418.6563,219 419.25,218.7344 Q419.8438,218.4531 420.4688,217.875 L420.4688,220.5938 Z "/><text fill="#000000" font-family="sans-serif" font-size="12" lengthAdjust="spacingAndGlyphs" textLength="101" x="431.5" y="219.1074">EAMDucpLoader</text><line style="stroke: #4169E1; stroke-width: 1.5;" x1="403.5" x2="534.5" y1="230.9531" y2="230.9531"/><line style="stroke: #4169E1; stroke-width: 1.5;" x1="403.5" x2="534.5" y1="238.9531" y2="238.9531"/><!--MD5=[d0d74a0ef018a354baff84d8a539eadf]
class TypeDescriptor--><rect fill="#FFFFFF" filter="url(#fif1arb1ucoz3)" height="48" id="TypeDescriptor" style="stroke: #4169E1; stroke-width: 1.5;" width="126" x="1144" y="90.9531"/><ellipse cx="1159" cy="106.9531" fill="#ADD1B2" rx="11" ry="11" style="stroke: #4169E1; stroke-width: 1.0;"/><path d="M1161.9688,112.5938 Q1161.3906,112.8906 1160.75,113.0313 Q1160.1094,113.1875 1159.4063,113.1875 Q1156.9063,113.1875 1155.5781,111.5469 Q1154.2656,109.8906 1154.2656,106.7656 Q1154.2656,103.6406 1155.5781,101.9844 Q1156.9063,100.3281 1159.4063,100.3281 Q1160.1094,100.3281 1160.75,100.4844 Q1161.4063,100.6406 1161.9688,100.9375 L1161.9688,103.6563 Q1161.3438,103.0781 1160.75,102.8125 Q1160.1563,102.5313 1159.5313,102.5313 Q1158.1875,102.5313 1157.5,103.6094 Q1156.8125,104.6719 1156.8125,106.7656 Q1156.8125,108.8594 1157.5,109.9375 Q1158.1875,111 1159.5313,111 Q1160.1563,111 1160.75,110.7344 Q1161.3438,110.4531 1161.9688,109.875 L1161.9688,112.5938 Z "/><text fill="#000000" font-family="sans-serif" font-size="12" lengthAdjust="spacingAndGlyphs" textLength="94" x="1173" y="111.1074">TypeDescriptor</text><line style="stroke: #4169E1; stroke-width: 1.5;" x1="1145" x2="1269" y1="122.9531" y2="122.9531"/><line style="stroke: #4169E1; stroke-width: 1.5;" x1="1145" x2="1269" y1="130.9531" y2="130.9531"/><!--MD5=[7870f61a2b09887c08d38df1315a7195]
class Namespace--><rect fill="#FFFFFF" filter="url(#fif1arb1ucoz3)" height="48" id="Namespace" style="stroke: #4169E1; stroke-width: 1.5;" width="106" x="555" y="90.9531"/><ellipse cx="570" cy="106.9531" fill="#ADD1B2" rx="11" ry="11" style="stroke: #4169E1; stroke-width: 1.0;"/><path d="M572.9688,112.5938 Q572.3906,112.8906 571.75,113.0313 Q571.1094,113.1875 570.4063,113.1875 Q567.9063,113.1875 566.5781,111.5469 Q565.2656,109.8906 565.2656,106.7656 Q565.2656,103.6406 566.5781,101.9844 Q567.9063,100.3281 570.4063,100.3281 Q571.1094,100.3281 571.75,100.4844 Q572.4063,100.6406 572.9688,100.9375 L572.9688,103.6563 Q572.3438,103.0781 571.75,102.8125 Q571.1563,102.5313 570.5313,102.5313 Q569.1875,102.5313 568.5,103.6094 Q567.8125,104.6719 567.8125,106.7656 Q567.8125,108.8594 568.5,109.9375 Q569.1875,111 570.5313,111 Q571.1563,111 571.75,110.7344 Q572.3438,110.4531 572.9688,109.875 L572.9688,112.5938 Z "/><text fill="#000000" font-family="sans-serif" font-size="12" lengthAdjust="spacingAndGlyphs" textLength="74" x="584" y="111.1074">Namespace</text><line style="stroke: #4169E1; stroke-width: 1.5;" x1="556" x2="660" y1="122.9531" y2="122.9531"/><line style="stroke: #4169E1; stroke-width: 1.5;" x1="556" x2="660" y1="130.9531" y2="130.9531"/><!--MD5=[43bec02df94fff5dc38d9e53a0cd883f]
class Thinglish--><rect fill="#FFFFFF" filter="url(#fif1arb1ucoz3)" height="48" id="Thinglish" style="stroke: #4169E1; stroke-width: 1.5;" width="87" x="1305.5" y="90.9531"/><ellipse cx="1320.5" cy="106.9531" fill="#ADD1B2" rx="11" ry="11" style="stroke: #4169E1; stroke-width: 1.0;"/><path d="M1323.4688,112.5938 Q1322.8906,112.8906 1322.25,113.0313 Q1321.6094,113.1875 1320.9063,113.1875 Q1318.4063,113.1875 1317.0781,111.5469 Q1315.7656,109.8906 1315.7656,106.7656 Q1315.7656,103.6406 1317.0781,101.9844 Q1318.4063,100.3281 1320.9063,100.3281 Q1321.6094,100.3281 1322.25,100.4844 Q1322.9063,100.6406 1323.4688,100.9375 L1323.4688,103.6563 Q1322.8438,103.0781 1322.25,102.8125 Q1321.6563,102.5313 1321.0313,102.5313 Q1319.6875,102.5313 1319,103.6094 Q1318.3125,104.6719 1318.3125,106.7656 Q1318.3125,108.8594 1319,109.9375 Q1319.6875,111 1321.0313,111 Q1321.6563,111 1322.25,110.7344 Q1322.8438,110.4531 1323.4688,109.875 L1323.4688,112.5938 Z "/><text fill="#000000" font-family="sans-serif" font-size="12" lengthAdjust="spacingAndGlyphs" textLength="55" x="1334.5" y="111.1074">Thinglish</text><line style="stroke: #4169E1; stroke-width: 1.5;" x1="1306.5" x2="1391.5" y1="122.9531" y2="122.9531"/><line style="stroke: #4169E1; stroke-width: 1.5;" x1="1306.5" x2="1391.5" y1="130.9531" y2="130.9531"/><!--MD5=[1db584ee1b8127ea75535273dec2b4f2]
class Version--><rect fill="#FFFFFF" filter="url(#fif1arb1ucoz3)" height="48" id="Version" style="stroke: #4169E1; stroke-width: 1.5;" width="79" x="570.5" y="198.9531"/><ellipse cx="585.5" cy="214.9531" fill="#ADD1B2" rx="11" ry="11" style="stroke: #4169E1; stroke-width: 1.0;"/><path d="M588.4688,220.5938 Q587.8906,220.8906 587.25,221.0313 Q586.6094,221.1875 585.9063,221.1875 Q583.4063,221.1875 582.0781,219.5469 Q580.7656,217.8906 580.7656,214.7656 Q580.7656,211.6406 582.0781,209.9844 Q583.4063,208.3281 585.9063,208.3281 Q586.6094,208.3281 587.25,208.4844 Q587.9063,208.6406 588.4688,208.9375 L588.4688,211.6563 Q587.8438,211.0781 587.25,210.8125 Q586.6563,210.5313 586.0313,210.5313 Q584.6875,210.5313 584,211.6094 Q583.3125,212.6719 583.3125,214.7656 Q583.3125,216.8594 584,217.9375 Q584.6875,219 586.0313,219 Q586.6563,219 587.25,218.7344 Q587.8438,218.4531 588.4688,217.875 L588.4688,220.5938 Z "/><text fill="#000000" font-family="sans-serif" font-size="12" lengthAdjust="spacingAndGlyphs" textLength="47" x="599.5" y="219.1074">Version</text><line style="stroke: #4169E1; stroke-width: 1.5;" x1="571.5" x2="648.5" y1="230.9531" y2="230.9531"/><line style="stroke: #4169E1; stroke-width: 1.5;" x1="571.5" x2="648.5" y1="238.9531" y2="238.9531"/><!--MD5=[9d8fdac8e0fe3b6e41d579a06a68e7f0]
class ArraySet--><rect fill="#FFFFFF" filter="url(#fif1arb1ucoz3)" height="48" id="ArraySet" style="stroke: #4169E1; stroke-width: 1.5;" width="85" x="684.5" y="198.9531"/><ellipse cx="699.5" cy="214.9531" fill="#ADD1B2" rx="11" ry="11" style="stroke: #4169E1; stroke-width: 1.0;"/><path d="M702.4688,220.5938 Q701.8906,220.8906 701.25,221.0313 Q700.6094,221.1875 699.9063,221.1875 Q697.4063,221.1875 696.0781,219.5469 Q694.7656,217.8906 694.7656,214.7656 Q694.7656,211.6406 696.0781,209.9844 Q697.4063,208.3281 699.9063,208.3281 Q700.6094,208.3281 701.25,208.4844 Q701.9063,208.6406 702.4688,208.9375 L702.4688,211.6563 Q701.8438,211.0781 701.25,210.8125 Q700.6563,210.5313 700.0313,210.5313 Q698.6875,210.5313 698,211.6094 Q697.3125,212.6719 697.3125,214.7656 Q697.3125,216.8594 698,217.9375 Q698.6875,219 700.0313,219 Q700.6563,219 701.25,218.7344 Q701.8438,218.4531 702.4688,217.875 L702.4688,220.5938 Z "/><text fill="#000000" font-family="sans-serif" font-size="12" lengthAdjust="spacingAndGlyphs" textLength="53" x="713.5" y="219.1074">ArraySet</text><line style="stroke: #4169E1; stroke-width: 1.5;" x1="685.5" x2="768.5" y1="230.9531" y2="230.9531"/><line style="stroke: #4169E1; stroke-width: 1.5;" x1="685.5" x2="768.5" y1="238.9531" y2="238.9531"/><!--MD5=[99f32fa4e73f6681c1a0ac5117bd3ce1]
class Array--><rect fill="#FFFFFF" filter="url(#fif1arb1ucoz3)" height="48" id="Array" style="stroke: #4169E1; stroke-width: 1.5;" width="64" x="696" y="90.9531"/><ellipse cx="711" cy="106.9531" fill="#ADD1B2" rx="11" ry="11" style="stroke: #4169E1; stroke-width: 1.0;"/><path d="M713.9688,112.5938 Q713.3906,112.8906 712.75,113.0313 Q712.1094,113.1875 711.4063,113.1875 Q708.9063,113.1875 707.5781,111.5469 Q706.2656,109.8906 706.2656,106.7656 Q706.2656,103.6406 707.5781,101.9844 Q708.9063,100.3281 711.4063,100.3281 Q712.1094,100.3281 712.75,100.4844 Q713.4063,100.6406 713.9688,100.9375 L713.9688,103.6563 Q713.3438,103.0781 712.75,102.8125 Q712.1563,102.5313 711.5313,102.5313 Q710.1875,102.5313 709.5,103.6094 Q708.8125,104.6719 708.8125,106.7656 Q708.8125,108.8594 709.5,109.9375 Q710.1875,111 711.5313,111 Q712.1563,111 712.75,110.7344 Q713.3438,110.4531 713.9688,109.875 L713.9688,112.5938 Z "/><text fill="#000000" font-family="sans-serif" font-size="12" lengthAdjust="spacingAndGlyphs" textLength="32" x="725" y="111.1074">Array</text><line style="stroke: #4169E1; stroke-width: 1.5;" x1="697" x2="759" y1="122.9531" y2="122.9531"/><line style="stroke: #4169E1; stroke-width: 1.5;" x1="697" x2="759" y1="130.9531" y2="130.9531"/><!--MD5=[8a252e928a4ba4c43cc4653ac5419ae5]
class DefaultLogger--><rect fill="#FFFFFF" filter="url(#fif1arb1ucoz3)" height="48" id="DefaultLogger" style="stroke: #4169E1; stroke-width: 1.5;" width="120" x="1085" y="198.9531"/><ellipse cx="1100" cy="214.9531" fill="#ADD1B2" rx="11" ry="11" style="stroke: #4169E1; stroke-width: 1.0;"/><path d="M1102.9688,220.5938 Q1102.3906,220.8906 1101.75,221.0313 Q1101.1094,221.1875 1100.4063,221.1875 Q1097.9063,221.1875 1096.5781,219.5469 Q1095.2656,217.8906 1095.2656,214.7656 Q1095.2656,211.6406 1096.5781,209.9844 Q1097.9063,208.3281 1100.4063,208.3281 Q1101.1094,208.3281 1101.75,208.4844 Q1102.4063,208.6406 1102.9688,208.9375 L1102.9688,211.6563 Q1102.3438,211.0781 1101.75,210.8125 Q1101.1563,210.5313 1100.5313,210.5313 Q1099.1875,210.5313 1098.5,211.6094 Q1097.8125,212.6719 1097.8125,214.7656 Q1097.8125,216.8594 1098.5,217.9375 Q1099.1875,219 1100.5313,219 Q1101.1563,219 1101.75,218.7344 Q1102.3438,218.4531 1102.9688,217.875 L1102.9688,220.5938 Z "/><text fill="#000000" font-family="sans-serif" font-size="12" lengthAdjust="spacingAndGlyphs" textLength="88" x="1114" y="219.1074">DefaultLogger</text><line style="stroke: #4169E1; stroke-width: 1.5;" x1="1086" x2="1204" y1="230.9531" y2="230.9531"/><line style="stroke: #4169E1; stroke-width: 1.5;" x1="1086" x2="1204" y1="238.9531" y2="238.9531"/><!--MD5=[e1c0d608961054df63feb13c5f11824a]
class IOR--><rect fill="#FFFFFF" filter="url(#fif1arb1ucoz3)" height="48" id="IOR" style="stroke: #4169E1; stroke-width: 1.5;" width="52" x="1240" y="198.9531"/><ellipse cx="1255" cy="214.9531" fill="#ADD1B2" rx="11" ry="11" style="stroke: #4169E1; stroke-width: 1.0;"/><path d="M1257.9688,220.5938 Q1257.3906,220.8906 1256.75,221.0313 Q1256.1094,221.1875 1255.4063,221.1875 Q1252.9063,221.1875 1251.5781,219.5469 Q1250.2656,217.8906 1250.2656,214.7656 Q1250.2656,211.6406 1251.5781,209.9844 Q1252.9063,208.3281 1255.4063,208.3281 Q1256.1094,208.3281 1256.75,208.4844 Q1257.4063,208.6406 1257.9688,208.9375 L1257.9688,211.6563 Q1257.3438,211.0781 1256.75,210.8125 Q1256.1563,210.5313 1255.5313,210.5313 Q1254.1875,210.5313 1253.5,211.6094 Q1252.8125,212.6719 1252.8125,214.7656 Q1252.8125,216.8594 1253.5,217.9375 Q1254.1875,219 1255.5313,219 Q1256.1563,219 1256.75,218.7344 Q1257.3438,218.4531 1257.9688,217.875 L1257.9688,220.5938 Z "/><text fill="#000000" font-family="sans-serif" font-size="12" lengthAdjust="spacingAndGlyphs" textLength="20" x="1269" y="219.1074">IOR</text><line style="stroke: #4169E1; stroke-width: 1.5;" x1="1241" x2="1291" y1="230.9531" y2="230.9531"/><line style="stroke: #4169E1; stroke-width: 1.5;" x1="1241" x2="1291" y1="238.9531" y2="238.9531"/><!--MD5=[1053da7555f32ea3c982e01119b403ff]
class Thing--><rect fill="#FFFFFF" filter="url(#fif1arb1ucoz3)" height="48" id="Thing" style="stroke: #4169E1; stroke-width: 1.5;" width="66" x="869" y="90.9531"/><ellipse cx="884" cy="106.9531" fill="#ADD1B2" rx="11" ry="11" style="stroke: #4169E1; stroke-width: 1.0;"/><path d="M886.9688,112.5938 Q886.3906,112.8906 885.75,113.0313 Q885.1094,113.1875 884.4063,113.1875 Q881.9063,113.1875 880.5781,111.5469 Q879.2656,109.8906 879.2656,106.7656 Q879.2656,103.6406 880.5781,101.9844 Q881.9063,100.3281 884.4063,100.3281 Q885.1094,100.3281 885.75,100.4844 Q886.4063,100.6406 886.9688,100.9375 L886.9688,103.6563 Q886.3438,103.0781 885.75,102.8125 Q885.1563,102.5313 884.5313,102.5313 Q883.1875,102.5313 882.5,103.6094 Q881.8125,104.6719 881.8125,106.7656 Q881.8125,108.8594 882.5,109.9375 Q883.1875,111 884.5313,111 Q885.1563,111 885.75,110.7344 Q886.3438,110.4531 886.9688,109.875 L886.9688,112.5938 Z "/><text fill="#000000" font-family="sans-serif" font-size="12" lengthAdjust="spacingAndGlyphs" textLength="34" x="898" y="111.1074">Thing</text><line style="stroke: #4169E1; stroke-width: 1.5;" x1="870" x2="934" y1="122.9531" y2="122.9531"/><line style="stroke: #4169E1; stroke-width: 1.5;" x1="870" x2="934" y1="130.9531" y2="130.9531"/><!--MD5=[b4d3d50c0abf08df45181fececb9f04d]
class Store--><rect fill="#FFFFFF" filter="url(#fif1arb1ucoz3)" height="48" id="Store" style="stroke: #4169E1; stroke-width: 1.5;" width="66" x="1327" y="198.9531"/><ellipse cx="1342" cy="214.9531" fill="#ADD1B2" rx="11" ry="11" style="stroke: #4169E1; stroke-width: 1.0;"/><path d="M1344.9688,220.5938 Q1344.3906,220.8906 1343.75,221.0313 Q1343.1094,221.1875 1342.4063,221.1875 Q1339.9063,221.1875 1338.5781,219.5469 Q1337.2656,217.8906 1337.2656,214.7656 Q1337.2656,211.6406 1338.5781,209.9844 Q1339.9063,208.3281 1342.4063,208.3281 Q1343.1094,208.3281 1343.75,208.4844 Q1344.4063,208.6406 1344.9688,208.9375 L1344.9688,211.6563 Q1344.3438,211.0781 1343.75,210.8125 Q1343.1563,210.5313 1342.5313,210.5313 Q1341.1875,210.5313 1340.5,211.6094 Q1339.8125,212.6719 1339.8125,214.7656 Q1339.8125,216.8594 1340.5,217.9375 Q1341.1875,219 1342.5313,219 Q1343.1563,219 1343.75,218.7344 Q1344.3438,218.4531 1344.9688,217.875 L1344.9688,220.5938 Z "/><text fill="#000000" font-family="sans-serif" font-size="12" lengthAdjust="spacingAndGlyphs" textLength="34" x="1356" y="219.1074">Store</text><line style="stroke: #4169E1; stroke-width: 1.5;" x1="1328" x2="1392" y1="230.9531" y2="230.9531"/><line style="stroke: #4169E1; stroke-width: 1.5;" x1="1328" x2="1392" y1="238.9531" y2="238.9531"/><!--MD5=[c7d4e5db89bf57060572d5c1ec9c0a10]
class FeatureDescriptor--><rect fill="#FFFFFF" filter="url(#fif1arb1ucoz3)" height="48" id="FeatureDescriptor" style="stroke: #4169E1; stroke-width: 1.5;" width="146" x="805" y="198.9531"/><ellipse cx="820" cy="214.9531" fill="#ADD1B2" rx="11" ry="11" style="stroke: #4169E1; stroke-width: 1.0;"/><path d="M822.9688,220.5938 Q822.3906,220.8906 821.75,221.0313 Q821.1094,221.1875 820.4063,221.1875 Q817.9063,221.1875 816.5781,219.5469 Q815.2656,217.8906 815.2656,214.7656 Q815.2656,211.6406 816.5781,209.9844 Q817.9063,208.3281 820.4063,208.3281 Q821.1094,208.3281 821.75,208.4844 Q822.4063,208.6406 822.9688,208.9375 L822.9688,211.6563 Q822.3438,211.0781 821.75,210.8125 Q821.1563,210.5313 820.5313,210.5313 Q819.1875,210.5313 818.5,211.6094 Q817.8125,212.6719 817.8125,214.7656 Q817.8125,216.8594 818.5,217.9375 Q819.1875,219 820.5313,219 Q821.1563,219 821.75,218.7344 Q822.3438,218.4531 822.9688,217.875 L822.9688,220.5938 Z "/><text fill="#000000" font-family="sans-serif" font-size="12" lengthAdjust="spacingAndGlyphs" textLength="114" x="834" y="219.1074">FeatureDescriptor</text><line style="stroke: #4169E1; stroke-width: 1.5;" x1="806" x2="950" y1="230.9531" y2="230.9531"/><line style="stroke: #4169E1; stroke-width: 1.5;" x1="806" x2="950" y1="238.9531" y2="238.9531"/><!--MD5=[87bbb4f3e9677b89b7e2216841fed86b]
class PropertyDescriptor--><rect fill="#FFFFFF" filter="url(#fif1arb1ucoz3)" height="48" id="PropertyDescriptor" style="stroke: #4169E1; stroke-width: 1.5;" width="150" x="803" y="414.9531"/><ellipse cx="818" cy="430.9531" fill="#ADD1B2" rx="11" ry="11" style="stroke: #4169E1; stroke-width: 1.0;"/><path d="M820.9688,436.5938 Q820.3906,436.8906 819.75,437.0313 Q819.1094,437.1875 818.4063,437.1875 Q815.9063,437.1875 814.5781,435.5469 Q813.2656,433.8906 813.2656,430.7656 Q813.2656,427.6406 814.5781,425.9844 Q815.9063,424.3281 818.4063,424.3281 Q819.1094,424.3281 819.75,424.4844 Q820.4063,424.6406 820.9688,424.9375 L820.9688,427.6563 Q820.3438,427.0781 819.75,426.8125 Q819.1563,426.5313 818.5313,426.5313 Q817.1875,426.5313 816.5,427.6094 Q815.8125,428.6719 815.8125,430.7656 Q815.8125,432.8594 816.5,433.9375 Q817.1875,435 818.5313,435 Q819.1563,435 819.75,434.7344 Q820.3438,434.4531 820.9688,433.875 L820.9688,436.5938 Z "/><text fill="#000000" font-family="sans-serif" font-size="12" lengthAdjust="spacingAndGlyphs" textLength="118" x="832" y="435.1074">PropertyDescriptor</text><line style="stroke: #4169E1; stroke-width: 1.5;" x1="804" x2="952" y1="446.9531" y2="446.9531"/><line style="stroke: #4169E1; stroke-width: 1.5;" x1="804" x2="952" y1="454.9531" y2="454.9531"/><!--MD5=[59e09ee1527c1332ca42a4fa924eb591]
class RelationshipDescriptor--><rect fill="#FFFFFF" filter="url(#fif1arb1ucoz3)" height="48" id="RelationshipDescriptor" style="stroke: #4169E1; stroke-width: 1.5;" width="174" x="594" y="414.9531"/><ellipse cx="609" cy="430.9531" fill="#ADD1B2" rx="11" ry="11" style="stroke: #4169E1; stroke-width: 1.0;"/><path d="M611.9688,436.5938 Q611.3906,436.8906 610.75,437.0313 Q610.1094,437.1875 609.4063,437.1875 Q606.9063,437.1875 605.5781,435.5469 Q604.2656,433.8906 604.2656,430.7656 Q604.2656,427.6406 605.5781,425.9844 Q606.9063,424.3281 609.4063,424.3281 Q610.1094,424.3281 610.75,424.4844 Q611.4063,424.6406 611.9688,424.9375 L611.9688,427.6563 Q611.3438,427.0781 610.75,426.8125 Q610.1563,426.5313 609.5313,426.5313 Q608.1875,426.5313 607.5,427.6094 Q606.8125,428.6719 606.8125,430.7656 Q606.8125,432.8594 607.5,433.9375 Q608.1875,435 609.5313,435 Q610.1563,435 610.75,434.7344 Q611.3438,434.4531 611.9688,433.875 L611.9688,436.5938 Z "/><text fill="#000000" font-family="sans-serif" font-size="12" lengthAdjust="spacingAndGlyphs" textLength="142" x="623" y="435.1074">RelationshipDescriptor</text><line style="stroke: #4169E1; stroke-width: 1.5;" x1="595" x2="767" y1="446.9531" y2="446.9531"/><line style="stroke: #4169E1; stroke-width: 1.5;" x1="595" x2="767" y1="454.9531" y2="454.9531"/><!--MD5=[dcb56f6fb2e47fc06e2276f5c7d0e229]
class CollectionDescriptor--><rect fill="#FFFFFF" filter="url(#fif1arb1ucoz3)" height="48" id="CollectionDescriptor" style="stroke: #4169E1; stroke-width: 1.5;" width="158" x="602" y="583.9531"/><ellipse cx="617" cy="599.9531" fill="#ADD1B2" rx="11" ry="11" style="stroke: #4169E1; stroke-width: 1.0;"/><path d="M619.9688,605.5938 Q619.3906,605.8906 618.75,606.0313 Q618.1094,606.1875 617.4063,606.1875 Q614.9063,606.1875 613.5781,604.5469 Q612.2656,602.8906 612.2656,599.7656 Q612.2656,596.6406 613.5781,594.9844 Q614.9063,593.3281 617.4063,593.3281 Q618.1094,593.3281 618.75,593.4844 Q619.4063,593.6406 619.9688,593.9375 L619.9688,596.6563 Q619.3438,596.0781 618.75,595.8125 Q618.1563,595.5313 617.5313,595.5313 Q616.1875,595.5313 615.5,596.6094 Q614.8125,597.6719 614.8125,599.7656 Q614.8125,601.8594 615.5,602.9375 Q616.1875,604 617.5313,604 Q618.1563,604 618.75,603.7344 Q619.3438,603.4531 619.9688,602.875 L619.9688,605.5938 Z "/><text fill="#000000" font-family="sans-serif" font-size="12" lengthAdjust="spacingAndGlyphs" textLength="126" x="631" y="604.1074">CollectionDescriptor</text><line style="stroke: #4169E1; stroke-width: 1.5;" x1="603" x2="759" y1="615.9531" y2="615.9531"/><line style="stroke: #4169E1; stroke-width: 1.5;" x1="603" x2="759" y1="623.9531" y2="623.9531"/><!--MD5=[e865b46243ee482af7a33ef0dd2a918e]
class MethodDescriptor--><rect fill="#FFFFFF" filter="url(#fif1arb1ucoz3)" height="48" id="MethodDescriptor" style="stroke: #4169E1; stroke-width: 1.5;" width="144" x="988" y="414.9531"/><ellipse cx="1003" cy="430.9531" fill="#ADD1B2" rx="11" ry="11" style="stroke: #4169E1; stroke-width: 1.0;"/><path d="M1005.9688,436.5938 Q1005.3906,436.8906 1004.75,437.0313 Q1004.1094,437.1875 1003.4063,437.1875 Q1000.9063,437.1875 999.5781,435.5469 Q998.2656,433.8906 998.2656,430.7656 Q998.2656,427.6406 999.5781,425.9844 Q1000.9063,424.3281 1003.4063,424.3281 Q1004.1094,424.3281 1004.75,424.4844 Q1005.4063,424.6406 1005.9688,424.9375 L1005.9688,427.6563 Q1005.3438,427.0781 1004.75,426.8125 Q1004.1563,426.5313 1003.5313,426.5313 Q1002.1875,426.5313 1001.5,427.6094 Q1000.8125,428.6719 1000.8125,430.7656 Q1000.8125,432.8594 1001.5,433.9375 Q1002.1875,435 1003.5313,435 Q1004.1563,435 1004.75,434.7344 Q1005.3438,434.4531 1005.9688,433.875 L1005.9688,436.5938 Z "/><text fill="#000000" font-family="sans-serif" font-size="12" lengthAdjust="spacingAndGlyphs" textLength="112" x="1017" y="435.1074">MethodDescriptor</text><line style="stroke: #4169E1; stroke-width: 1.5;" x1="989" x2="1131" y1="446.9531" y2="446.9531"/><line style="stroke: #4169E1; stroke-width: 1.5;" x1="989" x2="1131" y1="454.9531" y2="454.9531"/><!--MD5=[7b6f9188f113a09f6a6bb40c985c6f3a]
class DropSupport--><rect fill="#FFFFFF" filter="url(#fif1arb1ucoz3)" height="48" id="DropSupport" style="stroke: #4169E1; stroke-width: 1.5;" width="112" x="1089" y="306.9531"/><ellipse cx="1104" cy="322.9531" fill="#ADD1B2" rx="11" ry="11" style="stroke: #4169E1; stroke-width: 1.0;"/><path d="M1106.9688,328.5938 Q1106.3906,328.8906 1105.75,329.0313 Q1105.1094,329.1875 1104.4063,329.1875 Q1101.9063,329.1875 1100.5781,327.5469 Q1099.2656,325.8906 1099.2656,322.7656 Q1099.2656,319.6406 1100.5781,317.9844 Q1101.9063,316.3281 1104.4063,316.3281 Q1105.1094,316.3281 1105.75,316.4844 Q1106.4063,316.6406 1106.9688,316.9375 L1106.9688,319.6563 Q1106.3438,319.0781 1105.75,318.8125 Q1105.1563,318.5313 1104.5313,318.5313 Q1103.1875,318.5313 1102.5,319.6094 Q1101.8125,320.6719 1101.8125,322.7656 Q1101.8125,324.8594 1102.5,325.9375 Q1103.1875,327 1104.5313,327 Q1105.1563,327 1105.75,326.7344 Q1106.3438,326.4531 1106.9688,325.875 L1106.9688,328.5938 Z "/><text fill="#000000" font-family="sans-serif" font-size="12" lengthAdjust="spacingAndGlyphs" textLength="80" x="1118" y="327.1074">DropSupport</text><line style="stroke: #4169E1; stroke-width: 1.5;" x1="1090" x2="1200" y1="338.9531" y2="338.9531"/><line style="stroke: #4169E1; stroke-width: 1.5;" x1="1090" x2="1200" y1="346.9531" y2="346.9531"/><!--MD5=[95c64792ccc6f55bacde95a3f98f7de5]
class Once--><rect fill="#FFFFFF" filter="url(#fif1arb1ucoz3)" height="48" id="Once" style="stroke: #4169E1; stroke-width: 1.5;" width="64" x="986" y="198.9531"/><ellipse cx="1001" cy="214.9531" fill="#ADD1B2" rx="11" ry="11" style="stroke: #4169E1; stroke-width: 1.0;"/><path d="M1003.9688,220.5938 Q1003.3906,220.8906 1002.75,221.0313 Q1002.1094,221.1875 1001.4063,221.1875 Q998.9063,221.1875 997.5781,219.5469 Q996.2656,217.8906 996.2656,214.7656 Q996.2656,211.6406 997.5781,209.9844 Q998.9063,208.3281 1001.4063,208.3281 Q1002.1094,208.3281 1002.75,208.4844 Q1003.4063,208.6406 1003.9688,208.9375 L1003.9688,211.6563 Q1003.3438,211.0781 1002.75,210.8125 Q1002.1563,210.5313 1001.5313,210.5313 Q1000.1875,210.5313 999.5,211.6094 Q998.8125,212.6719 998.8125,214.7656 Q998.8125,216.8594 999.5,217.9375 Q1000.1875,219 1001.5313,219 Q1002.1563,219 1002.75,218.7344 Q1003.3438,218.4531 1003.9688,217.875 L1003.9688,220.5938 Z "/><text fill="#000000" font-family="sans-serif" font-size="12" lengthAdjust="spacingAndGlyphs" textLength="32" x="1015" y="219.1074">Once</text><line style="stroke: #4169E1; stroke-width: 1.5;" x1="987" x2="1049" y1="230.9531" y2="230.9531"/><line style="stroke: #4169E1; stroke-width: 1.5;" x1="987" x2="1049" y1="238.9531" y2="238.9531"/><!--MD5=[895f0aca8f03fa3112b28200f5316382]
reverse link Loader to DocumentScriptLoader--><path d="M248.9533,146.9157 C220.2991,163.5536 185.8425,183.5607 159.4672,198.8754 " fill="none" id="Loader&lt;-DocumentScriptLoader" style="stroke: #A80036; stroke-width: 1.0;"/><polygon fill="none" points="245.5494,140.7977,266.3601,136.8085,252.5793,152.9048,245.5494,140.7977" style="stroke: #A80036; stroke-width: 1.0;"/><!--MD5=[0bdf9d66cb7bb658e630a99dfc8d1fc2]
reverse link Loader to WeBeanLoader--><path d="M304,159.2442 C304,172.7702 304,187.1366 304,198.7967 " fill="none" id="Loader&lt;-WeBeanLoader" style="stroke: #A80036; stroke-width: 1.0;"/><polygon fill="none" points="297.0001,159.1904,304,139.1904,311.0001,159.1904,297.0001,159.1904" style="stroke: #A80036; stroke-width: 1.0;"/><!--MD5=[6707e9a265c0432e75dd86446df8fa65]
reverse link Loader to EAMDucpLoader--><path d="M357.9041,150.2358 C382.191,166.1327 410.251,184.4992 432.0944,198.7967 " fill="none" id="Loader&lt;-EAMDucpLoader" style="stroke: #A80036; stroke-width: 1.0;"/><polygon fill="none" points="353.9296,156.0006,341.0292,139.1904,361.5969,144.2867,353.9296,156.0006" style="stroke: #A80036; stroke-width: 1.0;"/><!--MD5=[fe7c5b8106481c8c27bba67723915f8a]
reverse link Namespace to Version--><path d="M608.8202,159.2442 C609.0707,172.7702 609.3367,187.1366 609.5527,198.7967 " fill="none" id="Namespace&lt;-Version" style="stroke: #A80036; stroke-width: 1.0;"/><polygon fill="none" points="601.8204,159.3166,608.4488,139.1904,615.818,159.0573,601.8204,159.3166" style="stroke: #A80036; stroke-width: 1.0;"/><!--MD5=[5c22128fd8a49851896422493a7352ec]
reverse link Array to ArraySet--><path d="M727.5899,159.2442 C727.4647,172.7702 727.3316,187.1366 727.2237,198.7967 " fill="none" id="Array&lt;-ArraySet" style="stroke: #A80036; stroke-width: 1.0;"/><polygon fill="none" points="720.5906,159.1247,727.7756,139.1904,734.59,159.2544,720.5906,159.1247" style="stroke: #A80036; stroke-width: 1.0;"/><!--MD5=[7056f85a1dd5d19efc6d189b2fe3279e]
reverse link Thing to FeatureDescriptor--><path d="M892.2648,158.7615 C889.2278,172.4278 885.9901,186.9978 883.3681,198.7967 " fill="none" id="Thing&lt;-FeatureDescriptor" style="stroke: #A80036; stroke-width: 1.0;"/><polygon fill="none" points="885.4419,157.1956,896.6139,139.1904,899.1086,160.2327,885.4419,157.1956" style="stroke: #A80036; stroke-width: 1.0;"/><!--MD5=[9f62aba5954cb081fdd4547e5b9fa014]
reverse link FeatureDescriptor to PropertyDescriptor--><path d="M878,267.4563 C878,312.0605 878,379.072 878,414.684 " fill="none" id="FeatureDescriptor&lt;-PropertyDescriptor" style="stroke: #A80036; stroke-width: 1.0;"/><polygon fill="none" points="871.0001,267.3112,878,247.3112,885.0001,267.3111,871.0001,267.3112" style="stroke: #A80036; stroke-width: 1.0;"/><!--MD5=[67eaf3105f0a03c4bccf4d10c3d8d5f5]
reverse link FeatureDescriptor to RelationshipDescriptor--><path d="M842.0427,262.3784 C801.5071,306.8235 736.8715,377.6929 703.1343,414.684 " fill="none" id="FeatureDescriptor&lt;-RelationshipDescriptor" style="stroke: #A80036; stroke-width: 1.0;"/><polygon fill="none" points="837.1352,257.3713,855.7845,247.3112,847.4792,266.8054,837.1352,257.3713" style="stroke: #A80036; stroke-width: 1.0;"/><!--MD5=[07359c075093e96088f1d73cf40f1332]
reverse link RelationshipDescriptor to CollectionDescriptor--><path d="M681,483.4767 C681,515.5849 681,557.6997 681,583.7844 " fill="none" id="RelationshipDescriptor&lt;-CollectionDescriptor" style="stroke: #A80036; stroke-width: 1.0;"/><polygon fill="none" points="674.0001,483.1667,681,463.1667,688.0001,483.1666,674.0001,483.1667" style="stroke: #A80036; stroke-width: 1.0;"/><!--MD5=[22eefb174c8ae244334fa4ff2f16143f]
reverse link FeatureDescriptor to MethodDescriptor--><path d="M911.4662,262.6712 C948.9303,307.1341 1008.451,377.7741 1039.5511,414.684 " fill="none" id="FeatureDescriptor&lt;-MethodDescriptor" style="stroke: #A80036; stroke-width: 1.0;"/><polygon fill="none" points="906.0579,267.1162,898.5239,247.3112,916.7641,258.0953,906.0579,267.1162" style="stroke: #A80036; stroke-width: 1.0;"/><!--MD5=[6e88b1d4e4f2cdc3f3fd7201133684a9]
reverse link Thing to Once--><path d="M942.9057,153.0378 C959.2541,168.2587 977.5923,185.3321 992.0542,198.7967 " fill="none" id="Thing&lt;-Once" style="stroke: #A80036; stroke-width: 1.0;"/><polygon fill="none" points="937.9006,157.9421,928.0327,139.1904,947.4405,147.6955,937.9006,157.9421" style="stroke: #A80036; stroke-width: 1.0;"/><!--MD5=[75852a2fa8b00ef0e21ade72a7458871]
link SavetySwitch to TypeDescriptor--><!--MD5=[a0a540b3a65418886e5004b62626c7f8]
link TypeDescriptor to Thinglish--><!--MD5=[675b5126a0be470403ba7c31f188473d]
link SavetySwitch to DefaultLogger--><!--MD5=[8b3e2be3299618372ff64774a56834a1]
link DefaultLogger to IOR--><!--MD5=[2d0e29749c058d01b4ad2771903bf2e9]
link IOR to Store--><!--MD5=[f6951367b2eea89ed55abc993d62ea7c]
link DefaultLogger to DropSupport--><!--MD5=[511b08375f5af9aee6be6848eda2eff9]
@startuml

title ONCE Overview - Deployment Diagram 


skinparam rectangle<<behavior>> {
	roundCorner 25
}

skinparam class {
    BackgroundColor White
    
    BorderColor RoyalBlue
    BorderColor<<primary>> #FF2C24
    BorderColor<<secondary>> #FF9924
}

hide stereotype


frame EAM {

        frame layer2:Once {
            class SavetySwitch
            class Loader
            class DocumentScriptLoader
            DocumentScriptLoader -up-|> Loader
            class WeBeanLoader
            WeBeanLoader -up-|> Loader
            class EAMDucpLoader
            EAMDucpLoader -up-|> Loader
            class TypeDescriptor
            class Namespace
            class Thinglish
            class Version
            Version -up-|> Namespace
            class ArraySet
            class Array
            ArraySet -up-|> Array
            class DefaultLogger
            class IOR
            class Thing
            class Store
            class FeatureDescriptor
            FeatureDescriptor -up-|> Thing
            class PropertyDescriptor
            PropertyDescriptor - -up-|> FeatureDescriptor
            class RelationshipDescriptor
            RelationshipDescriptor - -up-|> FeatureDescriptor
            class CollectionDescriptor
            CollectionDescriptor - -up-|> RelationshipDescriptor
            class MethodDescriptor
            MethodDescriptor - -up-|> FeatureDescriptor
            class DropSupport
            class Once
            Once -up-|> Thing

        }
}
@enduml

PlantUML version 1.2020.10(Sun May 17 15:05:57 IST 2020)
(GPL source distribution)
Java Runtime: OpenJDK Runtime Environment
JVM: OpenJDK 64-Bit Server VM
Java Version: 11.0.8+10-post-Ubuntu-0ubuntu118.04.1
Operating System: Linux
Default Encoding: UTF-8
Language: en
Country: IN
--></g></svg>